<svg width="1083" height="155" viewBox="0 0 1083 155" fill="none" xmlns="http://www.w3.org/2000/svg">
<path d="M23.1094 7.25V121H0.21875V7.25H23.1094ZM58.7344 55.6094V74.5156H17.3281V55.6094H58.7344ZM63.1094 7.25V26.2344H17.3281V7.25H63.1094ZM107.719 122.562C101.938 122.562 96.8073 121.677 92.3281 119.906C87.901 118.135 84.151 115.583 81.0781 112.25C78.0052 108.865 75.6615 104.776 74.0469 99.9844C72.4323 95.1927 71.625 89.724 71.625 83.5781V76.625C71.625 69.75 72.4062 63.7344 73.9688 58.5781C75.5312 53.3698 77.7448 48.9948 80.6094 45.4531C83.474 41.9115 86.9896 39.2812 91.1562 37.5625C95.375 35.7917 100.141 34.9062 105.453 34.9062C110.766 34.9062 115.427 35.7917 119.438 37.5625C123.5 39.2812 126.859 41.8854 129.516 45.375C132.172 48.8125 134.177 53.0833 135.531 58.1875C136.885 63.2917 137.562 69.2292 137.562 76V86H80.9219V70.6094H116.078V68.6562C116.078 65.2188 115.714 62.3542 114.984 60.0625C114.255 57.7188 113.109 55.974 111.547 54.8281C109.984 53.6823 107.901 53.1094 105.297 53.1094C103.109 53.1094 101.26 53.5521 99.75 54.4375C98.2396 55.3229 97.0417 56.7031 96.1562 58.5781C95.2708 60.4531 94.6198 62.901 94.2031 65.9219C93.7865 68.8906 93.5781 72.4583 93.5781 76.625V83.5781C93.5781 87.4844 93.9167 90.7656 94.5938 93.4219C95.2708 96.026 96.2604 98.1615 97.5625 99.8281C98.9167 101.443 100.557 102.615 102.484 103.344C104.411 104.021 106.651 104.359 109.203 104.359C113.057 104.359 116.521 103.682 119.594 102.328C122.719 100.922 125.375 99.0208 127.562 96.625L136.312 109.906C134.802 111.885 132.719 113.865 130.062 115.844C127.406 117.823 124.229 119.438 120.531 120.688C116.833 121.938 112.562 122.562 107.719 122.562ZM184.281 122.562C178.5 122.562 173.37 121.677 168.891 119.906C164.464 118.135 160.714 115.583 157.641 112.25C154.568 108.865 152.224 104.776 150.609 99.9844C148.995 95.1927 148.188 89.724 148.188 83.5781V76.625C148.188 69.75 148.969 63.7344 150.531 58.5781C152.094 53.3698 154.307 48.9948 157.172 45.4531C160.036 41.9115 163.552 39.2812 167.719 37.5625C171.938 35.7917 176.703 34.9062 182.016 34.9062C187.328 34.9062 191.99 35.7917 196 37.5625C200.062 39.2812 203.422 41.8854 206.078 45.375C208.734 48.8125 210.74 53.0833 212.094 58.1875C213.448 63.2917 214.125 69.2292 214.125 76V86H157.484V70.6094H192.641V68.6562C192.641 65.2188 192.276 62.3542 191.547 60.0625C190.818 57.7188 189.672 55.974 188.109 54.8281C186.547 53.6823 184.464 53.1094 181.859 53.1094C179.672 53.1094 177.823 53.5521 176.312 54.4375C174.802 55.3229 173.604 56.7031 172.719 58.5781C171.833 60.4531 171.182 62.901 170.766 65.9219C170.349 68.8906 170.141 72.4583 170.141 76.625V83.5781C170.141 87.4844 170.479 90.7656 171.156 93.4219C171.833 96.026 172.823 98.1615 174.125 99.8281C175.479 101.443 177.12 102.615 179.047 103.344C180.974 104.021 183.214 104.359 185.766 104.359C189.62 104.359 193.083 103.682 196.156 102.328C199.281 100.922 201.938 99.0208 204.125 96.625L212.875 109.906C211.365 111.885 209.281 113.865 206.625 115.844C203.969 117.823 200.792 119.438 197.094 120.688C193.396 121.938 189.125 122.562 184.281 122.562ZM267.719 102.328V1H289.672V121L269.828 121.078L267.719 102.328ZM223.891 81.7031V76.0781C223.891 69.2031 224.464 63.1875 225.609 58.0312C226.807 52.875 228.578 48.5781 230.922 45.1406C233.266 41.7031 236.13 39.151 239.516 37.4844C242.953 35.7656 246.885 34.9062 251.312 34.9062C255.323 34.9062 258.839 35.9219 261.859 37.9531C264.932 39.9323 267.536 42.7188 269.672 46.3125C271.807 49.9062 273.526 54.151 274.828 59.0469C276.13 63.9427 277.042 69.3073 277.562 75.1406V83.2656C276.938 88.7865 275.974 93.9427 274.672 98.7344C273.422 103.526 271.703 107.693 269.516 111.234C267.38 114.776 264.802 117.562 261.781 119.594C258.76 121.573 255.245 122.562 251.234 122.562C246.807 122.562 242.875 121.677 239.438 119.906C236.052 118.135 233.188 115.531 230.844 112.094C228.552 108.604 226.807 104.333 225.609 99.2812C224.464 94.1771 223.891 88.3177 223.891 81.7031ZM245.766 76.0781V81.7031C245.766 85.6615 245.948 89.0729 246.312 91.9375C246.729 94.75 247.38 97.0677 248.266 98.8906C249.203 100.661 250.427 101.99 251.938 102.875C253.448 103.708 255.323 104.125 257.562 104.125C260.479 104.125 262.849 103.396 264.672 101.938C266.495 100.427 267.849 98.3698 268.734 95.7656C269.672 93.1094 270.193 90.0625 270.297 86.625V71.8594C270.193 68.9948 269.854 66.4167 269.281 64.125C268.708 61.8333 267.901 59.8802 266.859 58.2656C265.818 56.651 264.516 55.401 262.953 54.5156C261.443 53.6302 259.672 53.1875 257.641 53.1875C255.453 53.1875 253.578 53.6302 252.016 54.5156C250.505 55.401 249.307 56.7812 248.422 58.6562C247.536 60.4792 246.859 62.849 246.391 65.7656C245.974 68.6302 245.766 72.0677 245.766 76.0781ZM306.234 1H328.031V101.391L326.469 121H306.234V1ZM371.938 75.9219V81.4688C371.938 88.3438 371.391 94.3333 370.297 99.4375C369.255 104.542 367.615 108.812 365.375 112.25C363.188 115.688 360.375 118.266 356.938 119.984C353.5 121.703 349.438 122.562 344.75 122.562C340.531 122.562 336.911 121.573 333.891 119.594C330.87 117.562 328.318 114.776 326.234 111.234C324.203 107.641 322.536 103.448 321.234 98.6562C319.984 93.8125 319.073 88.526 318.5 82.7969V74.5938C319.021 68.9688 319.906 63.7344 321.156 58.8906C322.458 54.0469 324.125 49.8542 326.156 46.3125C328.188 42.7188 330.714 39.9323 333.734 37.9531C336.807 35.9219 340.427 34.9062 344.594 34.9062C349.385 34.9062 353.5 35.7917 356.938 37.5625C360.375 39.2812 363.188 41.8594 365.375 45.2969C367.615 48.7344 369.255 53.0312 370.297 58.1875C371.391 63.2917 371.938 69.2031 371.938 75.9219ZM350.141 81.4688V75.9219C350.141 72.0156 349.984 68.6562 349.672 65.8438C349.359 63.0312 348.786 60.6875 347.953 58.8125C347.12 56.9375 345.922 55.5312 344.359 54.5938C342.849 53.6562 340.844 53.1875 338.344 53.1875C336.104 53.1875 334.229 53.6302 332.719 54.5156C331.208 55.349 329.906 56.599 328.812 58.2656C327.771 59.8802 326.99 61.8073 326.469 64.0469C326 66.2344 325.74 68.6562 325.688 71.3125V86.0781C325.74 89.6719 326.182 92.849 327.016 95.6094C327.849 98.3698 329.177 100.505 331 102.016C332.875 103.526 335.375 104.281 338.5 104.281C340.948 104.281 342.927 103.865 344.438 103.031C345.948 102.198 347.12 100.87 347.953 99.0469C348.839 97.224 349.411 94.8802 349.672 92.0156C349.984 89.099 350.141 85.5833 350.141 81.4688ZM422.641 101.547V62.4844C422.641 59.9323 422.328 57.901 421.703 56.3906C421.13 54.8802 420.245 53.7865 419.047 53.1094C417.901 52.3802 416.495 52.0156 414.828 52.0156C412.953 52.0156 411.391 52.4062 410.141 53.1875C408.891 53.9688 407.953 55.0885 407.328 56.5469C406.755 58.0052 406.469 59.75 406.469 61.7812H384.516C384.516 58.1354 385.219 54.6979 386.625 51.4688C388.031 48.1875 390.089 45.3229 392.797 42.875C395.557 40.375 398.839 38.4219 402.641 37.0156C406.443 35.6094 410.714 34.9062 415.453 34.9062C421.078 34.9062 426.078 35.8698 430.453 37.7969C434.828 39.6719 438.292 42.6667 440.844 46.7812C443.396 50.8958 444.672 56.2344 444.672 62.7969V100.453C444.672 105.193 444.906 109.047 445.375 112.016C445.896 114.984 446.651 117.536 447.641 119.672V121H425.609C424.62 118.656 423.865 115.74 423.344 112.25C422.875 108.708 422.641 105.141 422.641 101.547ZM425.297 69.3594L425.375 82.4844H417.328C415.245 82.4844 413.422 82.8229 411.859 83.5C410.349 84.1771 409.073 85.1406 408.031 86.3906C406.99 87.5885 406.208 88.9948 405.688 90.6094C405.219 92.224 404.984 93.9427 404.984 95.7656C404.984 97.7969 405.271 99.5156 405.844 100.922C406.417 102.328 407.276 103.396 408.422 104.125C409.568 104.854 410.922 105.219 412.484 105.219C414.88 105.219 416.964 104.724 418.734 103.734C420.505 102.745 421.807 101.547 422.641 100.141C423.526 98.7344 423.812 97.4323 423.5 96.2344L428.5 104.75C427.875 106.677 427.016 108.682 425.922 110.766C424.88 112.849 423.552 114.776 421.938 116.547C420.323 118.318 418.318 119.776 415.922 120.922C413.578 122.016 410.792 122.562 407.562 122.562C403.031 122.562 398.891 121.521 395.141 119.438C391.391 117.354 388.422 114.438 386.234 110.688C384.099 106.938 383.031 102.484 383.031 97.3281C383.031 93.0573 383.708 89.2031 385.062 85.7656C386.469 82.276 388.552 79.3333 391.312 76.9375C394.073 74.4896 397.562 72.6146 401.781 71.3125C406 70.0104 410.948 69.3594 416.625 69.3594H425.297ZM491.391 104.359C493.422 104.359 495.167 103.943 496.625 103.109C498.135 102.276 499.281 100.922 500.062 99.0469C500.844 97.1719 501.26 94.75 501.312 91.7812H521.859C521.859 98.1354 520.505 103.63 517.797 108.266C515.141 112.849 511.547 116.391 507.016 118.891C502.536 121.339 497.458 122.562 491.781 122.562C486.104 122.562 481.156 121.651 476.938 119.828C472.719 118.005 469.229 115.349 466.469 111.859C463.76 108.37 461.703 104.125 460.297 99.125C458.943 94.0729 458.266 88.2917 458.266 81.7812V75.6094C458.266 69.2031 458.943 63.474 460.297 58.4219C461.703 53.3698 463.76 49.099 466.469 45.6094C469.229 42.1198 472.693 39.4635 476.859 37.6406C481.078 35.8177 486.026 34.9062 491.703 34.9062C497.797 34.9062 503.083 36.1823 507.562 38.7344C512.042 41.2344 515.531 44.9323 518.031 49.8281C520.583 54.724 521.859 60.7656 521.859 67.9531H501.312C501.26 64.724 500.87 62.0417 500.141 59.9062C499.464 57.7188 498.396 56.0521 496.938 54.9062C495.531 53.7083 493.656 53.1094 491.312 53.1094C488.865 53.1094 486.885 53.6302 485.375 54.6719C483.917 55.6615 482.797 57.1198 482.016 59.0469C481.286 60.9219 480.792 63.2656 480.531 66.0781C480.271 68.8906 480.141 72.0677 480.141 75.6094V81.7812C480.141 85.5833 480.245 88.8906 480.453 91.7031C480.714 94.4635 481.208 96.8073 481.938 98.7344C482.719 100.609 483.839 102.016 485.297 102.953C486.807 103.891 488.839 104.359 491.391 104.359ZM556.312 0.921875V121H534.438V0.921875H556.312ZM600.766 36.4688L571 78.5L553.109 98.5781L545.375 81.9375L559.125 61.8594L574.672 36.4688H600.766ZM577.953 121L559.516 82.1719L574.594 68.2656L603.031 121H577.953ZM672.172 103.969L690.375 7.25H702.406L706 22.25L686.469 121H673.422L672.172 103.969ZM665.922 7.25L680.609 104.203L678.109 121H663.734L643.344 7.25H665.922ZM719.203 103.812L733.812 7.25H756.312L736.078 121H721.625L719.203 103.812ZM709.359 7.25L727.719 104.516L726.234 121H713.188L693.734 22.0938L697.406 7.25H709.359ZM790.844 36.4688V121H768.891V36.4688H790.844ZM767.875 14.5938C767.875 11.2083 768.943 8.42188 771.078 6.23438C773.266 3.99479 776.182 2.875 779.828 2.875C783.526 2.875 786.443 3.99479 788.578 6.23438C790.714 8.42188 791.781 11.2083 791.781 14.5938C791.781 17.9271 790.688 20.7135 788.5 22.9531C786.365 25.1406 783.5 26.2344 779.906 26.2344C776.208 26.2344 773.266 25.1406 771.078 22.9531C768.943 20.7135 767.875 17.9271 767.875 14.5938ZM849.125 102.328V1H871.078V121L851.234 121.078L849.125 102.328ZM805.297 81.7031V76.0781C805.297 69.2031 805.87 63.1875 807.016 58.0312C808.214 52.875 809.984 48.5781 812.328 45.1406C814.672 41.7031 817.536 39.151 820.922 37.4844C824.359 35.7656 828.292 34.9062 832.719 34.9062C836.729 34.9062 840.245 35.9219 843.266 37.9531C846.339 39.9323 848.943 42.7188 851.078 46.3125C853.214 49.9062 854.932 54.151 856.234 59.0469C857.536 63.9427 858.448 69.3073 858.969 75.1406V83.2656C858.344 88.7865 857.38 93.9427 856.078 98.7344C854.828 103.526 853.109 107.693 850.922 111.234C848.786 114.776 846.208 117.562 843.188 119.594C840.167 121.573 836.651 122.562 832.641 122.562C828.214 122.562 824.281 121.677 820.844 119.906C817.458 118.135 814.594 115.531 812.25 112.094C809.958 108.604 808.214 104.333 807.016 99.2812C805.87 94.1771 805.297 88.3177 805.297 81.7031ZM827.172 76.0781V81.7031C827.172 85.6615 827.354 89.0729 827.719 91.9375C828.135 94.75 828.786 97.0677 829.672 98.8906C830.609 100.661 831.833 101.99 833.344 102.875C834.854 103.708 836.729 104.125 838.969 104.125C841.885 104.125 844.255 103.396 846.078 101.938C847.901 100.427 849.255 98.3698 850.141 95.7656C851.078 93.1094 851.599 90.0625 851.703 86.625V71.8594C851.599 68.9948 851.26 66.4167 850.688 64.125C850.115 61.8333 849.307 59.8802 848.266 58.2656C847.224 56.651 845.922 55.401 844.359 54.5156C842.849 53.6302 841.078 53.1875 839.047 53.1875C836.859 53.1875 834.984 53.6302 833.422 54.5156C831.911 55.401 830.714 56.7812 829.828 58.6562C828.943 60.4792 828.266 62.849 827.797 65.7656C827.38 68.6302 827.172 72.0677 827.172 76.0781ZM932.016 36.4688H951.859V121C951.859 128.708 950.375 135.01 947.406 139.906C944.49 144.854 940.401 148.474 935.141 150.766C929.932 153.109 923.839 154.281 916.859 154.281C914.203 154.281 911.208 153.917 907.875 153.188C904.594 152.458 901.417 151.339 898.344 149.828C895.271 148.37 892.745 146.599 890.766 144.516L898.188 129.359C900.219 131.391 902.875 133.109 906.156 134.516C909.438 135.974 912.667 136.703 915.844 136.703C918.917 136.703 921.469 136.208 923.5 135.219C925.583 134.281 927.146 132.667 928.188 130.375C929.281 128.083 929.828 125.01 929.828 121.156V56.0781L932.016 36.4688ZM884.828 81.7031V76.0781C884.828 69.2031 885.479 63.1875 886.781 58.0312C888.083 52.875 889.958 48.5781 892.406 45.1406C894.854 41.7031 897.849 39.151 901.391 37.4844C904.984 35.7656 908.995 34.9062 913.422 34.9062C918.057 34.9062 921.938 35.9219 925.062 37.9531C928.188 39.9323 930.714 42.7188 932.641 46.3125C934.62 49.9062 936.13 54.151 937.172 59.0469C938.266 63.9427 939.099 69.3073 939.672 75.1406V83.2656C939.099 88.7865 938.161 93.9427 936.859 98.7344C935.609 103.526 933.943 107.693 931.859 111.234C929.776 114.776 927.224 117.562 924.203 119.594C921.182 121.573 917.536 122.562 913.266 122.562C908.891 122.562 904.932 121.677 901.391 119.906C897.901 118.135 894.906 115.531 892.406 112.094C889.958 108.604 888.083 104.333 886.781 99.2812C885.479 94.1771 884.828 88.3177 884.828 81.7031ZM906.781 76.0781V81.7031C906.781 85.6615 907.016 89.0729 907.484 91.9375C908.005 94.75 908.786 97.0677 909.828 98.8906C910.87 100.661 912.198 101.99 913.812 102.875C915.479 103.708 917.432 104.125 919.672 104.125C922.849 104.125 925.375 103.396 927.25 101.938C929.177 100.427 930.583 98.3698 931.469 95.7656C932.406 93.1094 932.927 90.0625 933.031 86.625V71.8594C932.979 68.9948 932.641 66.4167 932.016 64.125C931.443 61.8333 930.635 59.8802 929.594 58.2656C928.552 56.651 927.198 55.401 925.531 54.5156C923.917 53.6302 922.016 53.1875 919.828 53.1875C917.589 53.1875 915.661 53.6302 914.047 54.5156C912.432 55.401 911.078 56.7812 909.984 58.6562C908.943 60.4792 908.135 62.849 907.562 65.7656C907.042 68.6302 906.781 72.0677 906.781 76.0781ZM1002.25 122.562C996.469 122.562 991.339 121.677 986.859 119.906C982.432 118.135 978.682 115.583 975.609 112.25C972.536 108.865 970.193 104.776 968.578 99.9844C966.964 95.1927 966.156 89.724 966.156 83.5781V76.625C966.156 69.75 966.938 63.7344 968.5 58.5781C970.062 53.3698 972.276 48.9948 975.141 45.4531C978.005 41.9115 981.521 39.2812 985.688 37.5625C989.906 35.7917 994.672 34.9062 999.984 34.9062C1005.3 34.9062 1009.96 35.7917 1013.97 37.5625C1018.03 39.2812 1021.39 41.8854 1024.05 45.375C1026.7 48.8125 1028.71 53.0833 1030.06 58.1875C1031.42 63.2917 1032.09 69.2292 1032.09 76V86H975.453V70.6094H1010.61V68.6562C1010.61 65.2188 1010.24 62.3542 1009.52 60.0625C1008.79 57.7188 1007.64 55.974 1006.08 54.8281C1004.52 53.6823 1002.43 53.1094 999.828 53.1094C997.641 53.1094 995.792 53.5521 994.281 54.4375C992.771 55.3229 991.573 56.7031 990.688 58.5781C989.802 60.4531 989.151 62.901 988.734 65.9219C988.318 68.8906 988.109 72.4583 988.109 76.625V83.5781C988.109 87.4844 988.448 90.7656 989.125 93.4219C989.802 96.026 990.792 98.1615 992.094 99.8281C993.448 101.443 995.089 102.615 997.016 103.344C998.943 104.021 1001.18 104.359 1003.73 104.359C1007.59 104.359 1011.05 103.682 1014.12 102.328C1017.25 100.922 1019.91 99.0208 1022.09 96.625L1030.84 109.906C1029.33 111.885 1027.25 113.865 1024.59 115.844C1021.94 117.823 1018.76 119.438 1015.06 120.688C1011.36 121.938 1007.09 122.562 1002.25 122.562ZM1081.62 36.4688V52.9531H1038.5V36.4688H1081.62ZM1048.42 15.6094H1070.22V95.2188C1070.22 97.5625 1070.45 99.3594 1070.92 100.609C1071.39 101.859 1072.09 102.745 1073.03 103.266C1074.02 103.734 1075.32 103.969 1076.94 103.969C1078.03 103.969 1079.05 103.917 1079.98 103.812C1080.92 103.656 1081.62 103.5 1082.09 103.344V120.453C1080.38 121.13 1078.55 121.651 1076.62 122.016C1074.75 122.38 1072.51 122.562 1069.91 122.562C1065.53 122.562 1061.73 121.729 1058.5 120.062C1055.32 118.396 1052.85 115.74 1051.08 112.094C1049.31 108.396 1048.42 103.552 1048.42 97.5625V15.6094Z" fill="black"/>
</svg>
